<?xml version="1.0" encoding="utf-8"?>
<!-- Generator: Adobe Illustrator 19.0.0, SVG Export Plug-In . SVG Version: 6.00 Build 0)  -->
<svg version="1.1" id="Layer_1" xmlns="http://www.w3.org/2000/svg" xmlns:xlink="http://www.w3.org/1999/xlink" x="0px" y="0px"
	 viewBox="-467 269 24 24" style="enable-background:new -467 269 24 24;" xml:space="preserve">
<path d="M-449,287h-12c-0.6,0-1-0.4-1-1v-9c0-0.6,0.4-1,1-1h11.5c0.6,0,1,0.4,1,1c0,0.4-0.2,0.7-0.5,0.9c-0.5,0.4-3.4,3-5.4,4.8
	c-0.4,0.4-1,0.3-1.4-0.1l-4.1-4.4v6.8h10v-3h2v4C-448,286.6-448.4,287-449,287z M-457.5,278l2.4,2.5c1.2-1.1,2.1-1.9,2.8-2.5H-457.5
	z"/>
</svg>
